<svg width="24" height="24" fill="none" xmlns="http://www.w3.org/2000/svg"><path d="M18 3H6C4.3 3 3 4.292 3 5.981v11.924c0 1.69 1.3 2.981 3 2.981h12c1.7 0 3-1.292 3-2.98V5.98C21 4.291 19.7 3 18 3Zm-6 5.962c1.7 0 3 1.292 3 2.981 0 1.69-1.3 2.981-3 2.981s-3-1.292-3-2.98c0-1.69 1.3-2.982 3-2.982Zm3.8-1.987c0-.696.6-1.193 1.2-1.193s1.2.597 1.2 1.193c0 .596-.5 1.192-1.2 1.192s-1.2-.497-1.2-1.192ZM18 18.899H6c-.6 0-1-.398-1-.994v-5.962h2c0 2.782 2.2 4.969 5 4.969s5-2.187 5-4.969h2v5.962c0 .596-.4.994-1 .994Z" fill="#4F4F4F"/></svg>